<svg xmlns="http://www.w3.org/2000/svg" width="24" height="24" viewBox="0 0 24 24">
  <path
    d="M10 4H4c-1.11 0-2 .89-2 2v12c0 1.097.903 2 2 2h16c1.097 0 2-.903 2-2V8a2 2 0 0 0-2-2h-8l-2-2z"
    fill="#ff8a65"
    fill-rule="nonzero"
  />
  <path
    d="M10.43 14.14l4.044-4.052 1.183 1.19a1.387 1.387 0 0 0 .65 1.56v3.877c-.42.238-.699.693-.699 1.21 0 .768.632 1.4 1.4 1.4.767 0 1.4-.632 1.4-1.4 0-.517-.28-.972-.7-1.21v-3.4l1.448 1.462c-.05.105-.05.224-.05.35 0 .767.633 1.399 1.4 1.399.768 0 1.4-.632 1.4-1.4 0-.767-.632-1.4-1.4-1.4-.126 0-.245 0-.35.05l-1.798-1.799a1.385 1.385 0 0 0-.805-1.637c-.3-.112-.615-.14-.895-.063l-1.19-1.183.553-.545a1.381 1.381 0 0 1 1.973 0l5.591 5.59a1.381 1.381 0 0 1 0 1.974l-5.59 5.591a1.381 1.381 0 0 1-1.974 0l-5.591-5.59a1.381 1.381 0 0 1 0-1.974z"
    fill="#e64a19"
    fill-rule="nonzero"
  />
</svg>
