<?xml version="1.0" encoding="UTF-8" standalone="no"?>
<svg
   xmlns:dc="http://purl.org/dc/elements/1.1/"
   xmlns:cc="http://creativecommons.org/ns#"
   xmlns:rdf="http://www.w3.org/1999/02/22-rdf-syntax-ns#"
   xmlns:svg="http://www.w3.org/2000/svg"
   xmlns="http://www.w3.org/2000/svg"
   xmlns:sodipodi="http://sodipodi.sourceforge.net/DTD/sodipodi-0.dtd"
   xmlns:inkscape="http://www.inkscape.org/namespaces/inkscape"
   width="32"
   height="32"
   viewBox="0 0 31.999999 31.999999"
   version="1.1"
   id="svg6"
   sodipodi:docname="icon.svg"
   inkscape:version="0.92.5 (2060ec1f9f, 2020-04-08)">
  <metadata
     id="metadata12">
    <rdf:RDF>
      <cc:Work
         rdf:about="">
        <dc:format>image/svg+xml</dc:format>
        <dc:type
           rdf:resource="http://purl.org/dc/dcmitype/StillImage" />
        <dc:title></dc:title>
      </cc:Work>
    </rdf:RDF>
  </metadata>
  <defs
     id="defs10" />
  <sodipodi:namedview
     pagecolor="#ffffff"
     bordercolor="#666666"
     borderopacity="1"
     objecttolerance="10"
     gridtolerance="10"
     guidetolerance="10"
     inkscape:pageopacity="0"
     inkscape:pageshadow="2"
     inkscape:window-width="3696"
     inkscape:window-height="2032"
     id="namedview8"
     showgrid="false"
     fit-margin-top="0"
     fit-margin-left="0"
     fit-margin-right="0"
     fit-margin-bottom="0"
     inkscape:zoom="9.8333333"
     inkscape:cx="4.6605812"
     inkscape:cy="10.119085"
     inkscape:window-x="1058"
     inkscape:window-y="54"
     inkscape:window-maximized="1"
     inkscape:current-layer="svg6" />
  <g
     id="g3717"
     transform="translate(1.1611926,-6.9404574)">
    <path
       style="fill:#ff8a65;fill-rule:nonzero"
       inkscape:connector-curvature="0"
       id="path2"
       d="m 15.67753,13.880915 h -6 c -1.11,0 -2,0.89 -2,2 v 12 c 0,1.097 0.903,2 2,2 h 16 c 1.097,0 2,-0.903 2,-2 v -10 a 2,2 0 0 0 -2,-2 h -8 z" />
    <path
       style="fill:#e64a19;fill-rule:nonzero"
       inkscape:connector-curvature="0"
       id="path4"
       d="m 16.10753,24.020915 4.044,-4.052 1.183,1.19 a 1.387,1.387 0 0 0 0.65,1.56 v 3.877 c -0.42,0.238 -0.699,0.693 -0.699,1.21 0,0.768 0.632,1.4 1.4,1.4 0.767,0 1.4,-0.632 1.4,-1.4 0,-0.517 -0.28,-0.972 -0.7,-1.21 v -3.4 l 1.448,1.462 c -0.05,0.105 -0.05,0.224 -0.05,0.35 0,0.767 0.633,1.399 1.4,1.399 0.768,0 1.4,-0.632 1.4,-1.4 0,-0.767 -0.632,-1.4 -1.4,-1.4 -0.126,0 -0.245,0 -0.35,0.05 l -1.798,-1.799 a 1.385,1.385 0 0 0 -0.805,-1.637 c -0.3,-0.112 -0.615,-0.14 -0.895,-0.063 l -1.19,-1.183 0.553,-0.545 a 1.381,1.381 0 0 1 1.973,0 l 5.591,5.59 a 1.381,1.381 0 0 1 0,1.974 l -5.59,5.591 a 1.381,1.381 0 0 1 -1.974,0 l -5.591,-5.59 a 1.381,1.381 0 0 1 0,-1.974 z" />
    <path
       style="clip-rule:evenodd;fill:#000000;fill-rule:evenodd"
       inkscape:connector-curvature="0"
       d="m 8.6631265,17.935699 a 1.75,1.75 0 0 0 -1.237,0.512 l -6.91300003,6.907 a 1.75,1.75 0 0 0 -0.001,2.475 l 3.58700003,3.586 a 1.75,1.75 0 0 0 2.474,0 l 6.9139995,-6.906 a 1.75,1.75 0 0 0 0.512,-1.239 v -5.335 z m -0.177,1.573 a 0.25,0.25 0 0 1 0.177,-0.073 h 3.8359995 v 3.835 a 0.25,0.25 0 0 1 -0.073,0.177 l -6.9139995,6.908 a 0.25,0.25 0 0 1 -0.353,0 l -3.586,-3.587 a 0.25,0.25 0 0 1 0,-0.353 z m 1.513,3.427 a 1,1 0 1 0 0,-2 1,1 0 0 0 0,2 z"
       id="path6000" />
  </g>
</svg>
